<!-- icon666.com - MILLIONS vector ICONS FREE --><svg id="Layer_5" enable-background="new 0 0 64 64" viewBox="0 0 64 64" xmlns="http://www.w3.org/2000/svg"><g><path d="m33 37v-2h-2v2h-4v6c0 2.206 1.794 4 4 4h2c1.103 0 2 .897 2 2v4h-4c-1.103 0-2-.897-2-2v-1h-2v1c0 2.206 1.794 4 4 4v2h2v-2h4v-6c0-2.206-1.794-4-4-4h-2c-1.103 0-2-.897-2-2v-4h4c1.103 0 2 .897 2 2v1h2v-1c0-2.206-1.794-4-4-4z"></path><path d="m18 18v-1c0-1.859-1.28-3.411-3-3.858v-2.142h-2v2h-3v4c0 2.206 1.794 4 4 4 1.103 0 2 .897 2 2v2h-2c-1.103 0-2-.897-2-2v-1h-2v1c0 1.859 1.28 3.411 3 3.858v2.142h2v-2h3v-4c0-2.206-1.794-4-4-4-1.103 0-2-.897-2-2v-2h2c1.103 0 2 .897 2 2v1z"></path><path d="m51 13.142v-2.142h-2v2h-3v4c0 2.206 1.794 4 4 4 1.103 0 2 .897 2 2v2h-2c-1.103 0-2-.897-2-2v-1h-2v1c0 1.859 1.28 3.411 3 3.858v2.142h2v-2h3v-4c0-2.206-1.794-4-4-4-1.103 0-2-.897-2-2v-2h2c1.103 0 2 .897 2 2v1h2v-1c0-1.859-1.28-3.411-3-3.858z"></path><path d="m50 7c-6.831 0-12.435 5.299-12.949 12h-4.051v-10h5c3.86 0 7-3.141 7-7v-1h-7c-2.548 0-4.775 1.373-6 3.413-1.225-2.04-3.452-3.413-6-3.413h-7v1c0 3.859 3.14 7 7 7h5v10h-4.051c-.514-6.701-6.118-12-12.949-12-7.168 0-13 5.832-13 13s5.832 13 13 13c3.36 0 6.583-1.331 9-3.659v2.253c-4.949 3.098-8 8.564-8 14.406 0 9.374 7.626 17 17 17s17-7.626 17-17c0-5.842-3.051-11.309-8-14.406v-2.253c2.417 2.328 5.64 3.659 9 3.659 7.168 0 13-5.832 13-13s-5.832-13-13-13zm-12-4h4.899c-.464 2.279-2.484 4-4.899 4h-4.899c.464-2.279 2.484-4 4.899-4zm-12 4c-2.415 0-4.435-1.721-4.899-4h4.899c2.415 0 4.435 1.721 4.899 4zm-3 20v-2h18v2zm2-4v-2h14v2zm-22-3c0-6.065 4.935-11 11-11 5.728 0 10.442 4.402 10.949 10h-1.949v4h-2v5.449c-1.963 1.629-4.434 2.551-7 2.551-6.065 0-11-4.935-11-11zm44 26c0 8.271-6.729 15-15 15s-15-6.729-15-15c0-5.324 2.875-10.296 7.501-12.977l.499-.289v-3.734h14v3.734l.499.289c4.626 2.681 7.501 7.653 7.501 12.977zm3-15c-2.566 0-5.037-.922-7-2.551v-5.449h-2v-4h-1.949c.507-5.598 5.221-10 10.949-10 6.065 0 11 4.935 11 11s-4.935 11-11 11z"></path></g></svg>